<?xml version="1.0" standalone="no"?>
<!DOCTYPE svg PUBLIC "-//W3C//DTD SVG 20010904//EN"
 "http://www.w3.org/TR/2001/REC-SVG-20010904/DTD/svg10.dtd">
<svg version="1.0" xmlns="http://www.w3.org/2000/svg"
 width="1030.000000pt" height="796.000000pt" viewBox="0 0 1030.000000 796.000000"
 preserveAspectRatio="xMidYMid meet">
<metadata>
Created by potrace 1.16, written by Peter Selinger 2001-2019
</metadata>
<g transform="translate(0.000000,796.000000) scale(0.100000,-0.100000)"
fill="#000000" stroke="none">
<path d="M4820 7910 c0 -6 -27 -10 -60 -10 -33 0 -60 -4 -60 -10 0 -5 -22 -10
-50 -10 -27 0 -50 -4 -50 -10 0 -5 -18 -10 -40 -10 -22 0 -40 -4 -40 -10 0 -5
-13 -10 -30 -10 -16 0 -30 -4 -30 -10 0 -5 -13 -10 -30 -10 -16 0 -30 -4 -30
-10 0 -5 -13 -10 -30 -10 -16 0 -30 -4 -30 -10 0 -5 -13 -10 -30 -10 -16 0
-30 -4 -30 -10 0 -5 -13 -10 -30 -10 -16 0 -30 -4 -30 -10 0 -5 -9 -10 -20
-10 -11 0 -20 -4 -20 -10 0 -5 -13 -10 -30 -10 -16 0 -30 -4 -30 -10 0 -5 -9
-10 -20 -10 -11 0 -20 -4 -20 -10 0 -5 -9 -10 -20 -10 -11 0 -20 -4 -20 -10 0
-5 -9 -10 -20 -10 -11 0 -20 -4 -20 -10 0 -5 -9 -10 -20 -10 -11 0 -20 -4 -20
-10 0 -5 -9 -10 -20 -10 -11 0 -20 -4 -20 -10 0 -5 -8 -10 -18 -10 -10 0 -24
-9 -32 -20 -8 -11 -22 -20 -32 -20 -10 0 -18 -4 -18 -10 0 -5 -8 -10 -18 -10
-10 0 -24 -9 -32 -20 -8 -11 -21 -20 -28 -20 -8 0 -27 -13 -42 -30 -15 -16
-33 -30 -40 -30 -7 0 -25 -13 -40 -30 -15 -16 -33 -30 -40 -30 -6 0 -33 -22
-60 -50 -27 -27 -54 -50 -59 -50 -15 0 -181 -166 -181 -181 0 -5 -22 -32 -50
-59 -27 -27 -50 -54 -50 -60 0 -7 -13 -25 -30 -40 -16 -15 -30 -34 -30 -42 0
-7 -9 -20 -20 -28 -11 -8 -20 -21 -20 -30 0 -9 -9 -22 -20 -30 -11 -8 -20 -21
-20 -30 0 -9 -9 -22 -20 -30 -11 -8 -20 -22 -20 -32 0 -10 -4 -18 -10 -18 -5
0 -10 -8 -10 -18 0 -10 -9 -24 -20 -32 -11 -8 -20 -22 -20 -32 0 -10 -4 -18
-10 -18 -5 0 -10 -9 -10 -20 0 -11 -4 -20 -10 -20 -5 0 -10 -9 -10 -20 0 -11
-4 -20 -10 -20 -5 0 -10 -9 -10 -20 0 -11 -4 -20 -10 -20 -5 0 -10 -9 -10 -20
0 -11 -4 -20 -10 -20 -5 0 -10 -13 -10 -30 0 -16 -4 -30 -10 -30 -5 0 -10 -9
-10 -20 0 -11 -4 -20 -10 -20 -5 0 -10 -11 -10 -25 0 -18 -19 -45 -65 -90 -35
-36 -70 -65 -78 -65 -7 0 -19 -9 -27 -20 -8 -11 -21 -20 -28 -20 -8 0 -27 -13
-42 -30 -15 -16 -33 -30 -39 -30 -17 0 -161 -147 -161 -165 0 -8 -4 -15 -10
-15 -5 0 -10 -9 -10 -20 0 -11 -4 -20 -10 -20 -5 0 -10 -9 -10 -20 0 -11 -4
-20 -10 -20 -5 0 -10 -18 -10 -40 0 -22 -4 -40 -10 -40 -6 0 -10 -30 -10 -70
0 -40 4 -70 10 -70 6 0 10 -18 10 -40 0 -22 5 -40 10 -40 6 0 10 -9 10 -20 0
-11 5 -20 10 -20 6 0 10 -8 10 -18 0 -10 9 -24 20 -32 11 -8 20 -22 20 -32 0
-11 7 -18 18 -18 10 0 24 -9 32 -20 8 -11 22 -20 32 -20 10 0 18 -4 18 -10 0
-5 9 -10 20 -10 11 0 20 -4 20 -10 0 -5 9 -10 20 -10 11 0 20 -4 20 -10 0 -5
7 -10 15 -10 9 0 27 -11 40 -25 23 -22 25 -32 25 -120 0 -57 4 -95 10 -95 6 0
10 -27 10 -60 0 -33 4 -60 10 -60 6 0 10 -22 10 -50 0 -27 5 -50 10 -50 6 0
10 -18 10 -40 0 -22 5 -40 10 -40 6 0 10 -18 10 -40 0 -22 5 -40 10 -40 6 0
10 -13 10 -30 0 -16 5 -30 10 -30 6 0 10 -13 10 -30 0 -16 5 -30 10 -30 6 0
10 -9 10 -20 0 -11 5 -20 10 -20 6 0 10 -13 10 -30 0 -16 5 -30 10 -30 6 0 10
-13 10 -30 0 -16 5 -30 10 -30 6 0 10 -9 10 -20 0 -11 5 -20 10 -20 6 0 10 -9
10 -20 0 -11 5 -20 10 -20 6 0 10 -9 10 -20 0 -11 5 -20 10 -20 6 0 10 -9 10
-20 0 -11 5 -20 10 -20 6 0 10 -9 10 -20 0 -11 5 -20 10 -20 6 0 10 -9 10 -20
0 -11 5 -20 10 -20 6 0 10 -9 10 -20 0 -11 5 -20 10 -20 6 0 10 -8 10 -18 0
-10 9 -24 20 -32 11 -8 20 -21 20 -30 0 -9 9 -22 20 -30 11 -8 20 -21 20 -30
0 -9 9 -22 20 -30 11 -8 20 -21 20 -30 0 -9 9 -22 20 -30 11 -8 20 -21 20 -28
0 -7 18 -31 40 -52 22 -21 40 -44 40 -50 0 -6 27 -38 60 -70 33 -32 60 -64 60
-70 0 -14 46 -60 60 -60 6 0 38 -27 70 -60 32 -33 64 -60 70 -60 6 0 29 -18
50 -40 21 -22 45 -40 52 -40 7 0 20 -9 28 -20 8 -11 21 -20 30 -20 9 0 22 -9
30 -20 8 -11 21 -20 30 -20 9 0 22 -9 30 -20 8 -11 21 -20 30 -20 9 0 22 -9
30 -20 8 -11 22 -20 32 -20 10 0 18 -4 18 -10 0 -5 9 -10 20 -10 11 0 20 -4
20 -10 0 -5 9 -10 20 -10 11 0 20 -4 20 -10 0 -5 9 -10 20 -10 12 0 20 -7 20
-16 0 -20 -24 -44 -44 -44 -9 0 -16 -4 -16 -10 0 -5 -13 -10 -29 -10 -16 0
-32 -6 -35 -12 -5 -10 -7 -10 -12 0 -3 6 -12 12 -21 12 -8 0 -28 14 -43 30
-15 17 -35 30 -44 30 -9 0 -16 5 -16 10 0 6 -9 10 -20 10 -11 0 -20 5 -20 10
0 6 -18 10 -40 10 -22 0 -40 5 -40 10 0 6 -37 10 -90 10 -53 0 -90 -4 -90 -10
0 -5 -13 -10 -30 -10 -16 0 -30 -4 -30 -10 0 -5 -13 -10 -30 -10 -16 0 -30 -4
-30 -10 0 -5 -7 -10 -15 -10 -20 0 -125 -105 -125 -125 0 -8 -4 -15 -10 -15
-5 0 -10 -13 -10 -30 0 -16 -4 -30 -10 -30 -5 0 -10 -13 -10 -30 0 -16 -4 -30
-10 -30 -6 0 -10 -39 -10 -96 0 -69 -4 -99 -14 -110 -12 -11 -54 -14 -210 -14
-124 0 -196 -4 -196 -10 0 -5 -18 -10 -40 -10 -22 0 -40 -4 -40 -10 0 -5 -18
-10 -40 -10 -22 0 -40 -4 -40 -10 0 -5 -13 -10 -30 -10 -16 0 -30 5 -30 10 0
6 -18 10 -40 10 -22 0 -40 5 -40 10 0 6 -18 10 -40 10 -22 0 -40 5 -40 10 0 6
-63 10 -170 10 -107 0 -170 -4 -170 -10 0 -5 -18 -10 -40 -10 -22 0 -40 -4
-40 -10 0 -5 -13 -10 -30 -10 -16 0 -30 -4 -30 -10 0 -5 -9 -10 -20 -10 -11 0
-20 -4 -20 -10 0 -5 -9 -10 -20 -10 -11 0 -20 -4 -20 -10 0 -5 -9 -10 -20 -10
-11 0 -20 -4 -20 -10 0 -5 -7 -10 -15 -10 -19 0 -105 -84 -105 -103 0 -7 -9
-19 -20 -27 -11 -8 -20 -22 -20 -32 0 -10 -4 -18 -10 -18 -5 0 -10 -13 -10
-30 0 -16 -4 -30 -10 -30 -5 0 -10 -13 -10 -30 0 -16 -4 -30 -10 -30 -6 0 -10
-47 -10 -120 0 -73 4 -120 10 -120 6 0 10 -18 10 -40 0 -22 5 -40 10 -40 6 0
10 -13 10 -30 0 -16 5 -30 10 -30 6 0 10 -9 10 -20 0 -11 5 -20 10 -20 6 0 10
-8 10 -18 0 -10 9 -24 20 -32 11 -8 20 -21 20 -28 0 -8 13 -27 30 -42 16 -15
30 -33 30 -40 0 -6 -27 -38 -60 -70 -33 -32 -60 -66 -60 -74 0 -9 -4 -16 -10
-16 -5 0 -10 -9 -10 -20 0 -11 -4 -20 -10 -20 -5 0 -10 -13 -10 -30 0 -16 -4
-30 -10 -30 -6 0 -10 -33 -10 -80 0 -47 4 -80 10 -80 6 0 10 -18 10 -40 0 -22
5 -40 10 -40 6 0 10 -9 10 -20 0 -11 5 -20 10 -20 6 0 10 -7 10 -15 0 -20 105
-125 125 -125 8 0 15 -4 15 -10 0 -5 7 -10 16 -10 15 0 44 -23 44 -34 0 -3
-31 -6 -70 -6 -40 0 -70 4 -70 10 0 6 -97 10 -270 10 -173 0 -270 -4 -270 -10
0 -6 -37 -10 -90 -10 -53 0 -90 4 -90 10 0 6 -47 10 -120 10 -73 0 -120 -4
-120 -10 0 -6 -37 -10 -90 -10 -53 0 -90 4 -90 10 0 6 -37 10 -90 10 -53 0
-90 -4 -90 -10 0 -5 -18 -10 -40 -10 -22 0 -40 -4 -40 -10 0 -5 -9 -10 -20
-10 -11 0 -20 -4 -20 -10 0 -5 -7 -10 -15 -10 -20 0 -85 -65 -85 -85 0 -8 -4
-15 -10 -15 -5 0 -10 -9 -10 -20 0 -11 -4 -20 -10 -20 -5 0 -10 -13 -10 -30 0
-16 -4 -30 -10 -30 -6 0 -10 -57 -10 -150 0 -93 4 -150 10 -150 6 0 10 -18 10
-40 0 -22 5 -40 10 -40 6 0 10 -7 10 -15 0 -20 105 -125 125 -125 8 0 15 -4
15 -10 0 -5 18 -10 40 -10 22 0 40 -4 40 -10 0 -6 67 -10 180 -10 113 0 180
-4 180 -10 0 -6 53 -10 140 -10 87 0 140 4 140 10 0 6 23 10 50 10 28 0 50 -4
50 -10 0 -6 40 -10 100 -10 60 0 100 4 100 10 0 6 23 10 50 10 28 0 50 5 50
10 0 6 18 10 40 10 22 0 40 -4 40 -10 0 -6 130 -10 370 -10 240 0 370 -4 370
-10 0 -6 40 -10 100 -10 60 0 100 4 100 10 0 7 230 10 670 10 440 0 670 3 670
10 0 6 23 10 50 10 28 0 50 -4 50 -10 0 -6 33 -10 80 -10 47 0 80 4 80 10 0 6
18 10 40 10 22 0 40 -4 40 -10 0 -5 18 -10 40 -10 22 0 40 -4 40 -10 0 -6 43
-10 110 -10 67 0 110 4 110 10 0 6 18 10 40 10 22 0 40 5 40 10 0 6 9 10 20
10 11 0 20 5 20 10 0 6 9 10 20 10 11 0 20 5 20 10 0 6 23 10 50 10 28 0 50 5
50 10 0 6 23 10 50 10 28 0 50 -4 50 -10 0 -5 14 -10 30 -10 17 0 30 -4 30
-10 0 -5 9 -10 20 -10 11 0 20 -4 20 -10 0 -5 18 -10 40 -10 22 0 40 -4 40
-10 0 -6 80 -10 220 -10 140 0 220 -4 220 -10 0 -6 40 -10 100 -10 60 0 100 4
100 10 0 6 120 10 340 10 220 0 340 -4 340 -10 0 -6 53 -10 140 -10 87 0 140
4 140 10 0 6 80 10 220 10 140 0 220 4 220 10 0 6 18 10 40 10 22 0 40 5 40
10 0 6 14 10 30 10 17 0 30 5 30 10 0 6 14 10 30 10 17 0 30 5 30 10 0 6 27
10 60 10 33 0 60 -4 60 -10 0 -5 9 -10 20 -10 11 0 20 -4 20 -10 0 -5 9 -10
20 -10 11 0 20 -4 20 -10 0 -5 9 -10 20 -10 11 0 20 -4 20 -10 0 -5 18 -10 40
-10 22 0 40 -4 40 -10 0 -6 40 -10 100 -10 60 0 100 4 100 10 0 6 23 10 50 10
28 0 50 5 50 10 0 6 18 10 40 10 22 0 40 -4 40 -10 0 -6 40 -10 100 -10 60 0
100 4 100 10 0 6 18 10 40 10 22 0 40 -4 40 -10 0 -5 18 -10 40 -10 22 0 40
-4 40 -10 0 -6 50 -10 130 -10 80 0 130 4 130 10 0 6 83 10 230 10 147 0 230
4 230 10 0 6 23 10 50 10 28 0 50 -4 50 -10 0 -6 30 -10 70 -10 40 0 70 4 70
10 0 6 30 10 70 10 40 0 70 -4 70 -10 0 -5 18 -10 40 -10 22 0 40 -4 40 -10 0
-6 43 -10 110 -10 67 0 110 4 110 10 0 6 37 10 90 10 53 0 90 -4 90 -10 0 -6
37 -10 90 -10 53 0 90 4 90 10 0 6 18 10 40 10 22 0 40 5 40 10 0 6 9 10 20
10 11 0 20 5 20 10 0 6 8 10 18 10 10 0 24 9 32 20 8 11 22 20 32 20 11 0 18
7 18 18 0 10 9 24 20 32 11 8 20 22 20 32 0 10 5 18 10 18 6 0 10 14 10 30 0
17 5 30 10 30 6 0 10 47 10 120 0 73 -4 120 -10 120 -5 0 -10 18 -10 40 0 22
-4 40 -10 40 -5 0 -10 14 -10 30 0 17 -4 30 -10 30 -5 0 -10 9 -10 20 0 11 -4
20 -10 20 -5 0 -10 7 -10 15 0 20 -65 85 -85 85 -8 0 -15 5 -15 10 0 6 -9 10
-20 10 -11 0 -20 5 -20 10 0 6 -18 10 -40 10 -22 0 -40 5 -40 10 0 6 -27 10
-60 10 -33 0 -60 -4 -60 -10 0 -5 -22 -10 -50 -10 -27 0 -50 -4 -50 -10 0 -5
-22 -10 -50 -10 -27 0 -50 5 -50 10 0 6 -18 10 -40 10 -22 0 -40 5 -40 10 0 6
-33 10 -80 10 -47 0 -80 -4 -80 -10 0 -6 -30 -10 -70 -10 -40 0 -70 4 -70 10
0 6 -67 10 -180 10 -113 0 -180 -4 -180 -10 0 -6 -65 -10 -176 -10 -143 0
-178 3 -190 15 -14 13 -14 17 0 30 8 8 22 15 30 15 9 0 16 5 16 10 0 6 7 10
15 10 20 0 105 85 105 105 0 8 5 15 10 15 6 0 10 14 10 30 0 17 5 30 10 30 6
0 10 14 10 30 0 17 5 30 10 30 6 0 10 33 10 80 0 47 4 80 10 80 7 0 10 143 10
410 0 267 -3 410 -10 410 -5 0 -10 18 -10 40 0 22 -4 40 -10 40 -5 0 -10 14
-10 30 0 17 -4 30 -10 30 -5 0 -10 9 -10 20 0 11 -4 20 -10 20 -5 0 -10 8 -10
18 0 10 -9 24 -20 32 -11 8 -20 20 -20 28 0 17 -45 62 -62 62 -8 0 -20 9 -28
20 -8 11 -22 20 -32 20 -10 0 -18 5 -18 10 0 6 -9 10 -20 10 -11 0 -20 5 -20
10 0 6 -13 10 -30 10 -16 0 -30 5 -30 10 0 6 -13 10 -30 10 -16 0 -30 5 -30
10 0 6 -70 10 -190 10 -120 0 -190 -4 -190 -10 0 -5 -18 -10 -40 -10 -22 0
-40 -4 -40 -10 0 -5 -18 -10 -40 -10 -22 0 -40 -4 -40 -10 0 -5 -13 -10 -30
-10 -16 0 -30 5 -30 10 0 6 -18 10 -40 10 -22 0 -40 5 -40 10 0 6 -18 10 -40
10 -22 0 -40 5 -40 10 0 6 -63 10 -170 10 -107 0 -170 -4 -170 -10 0 -15 -70
-12 -86 4 -11 11 -14 46 -14 150 0 84 -4 136 -10 136 -5 0 -10 14 -10 30 0 17
-4 30 -10 30 -5 0 -10 9 -10 20 0 11 -4 20 -10 20 -5 0 -10 7 -10 15 0 20 -65
85 -85 85 -8 0 -15 5 -15 10 0 6 -9 10 -20 10 -11 0 -20 5 -20 10 0 6 -18 10
-40 10 -22 0 -40 5 -40 10 0 6 -37 10 -90 10 -53 0 -90 -4 -90 -10 0 -5 -13
-10 -30 -10 -16 0 -30 -4 -30 -10 0 -5 -13 -10 -30 -10 -16 0 -30 -4 -30 -10
0 -5 -7 -10 -15 -10 -20 0 -125 -105 -125 -125 0 -8 -4 -15 -10 -15 -5 0 -10
-13 -10 -30 0 -16 -4 -30 -10 -30 -5 0 -10 -13 -10 -30 0 -16 -4 -30 -10 -30
-6 0 -10 -39 -10 -96 0 -69 -4 -99 -14 -110 -12 -11 -54 -14 -210 -14 -124 0
-196 -4 -196 -10 0 -5 -18 -10 -40 -10 -22 0 -40 -4 -40 -10 0 -5 -18 -10 -40
-10 -22 0 -40 -4 -40 -10 0 -5 -22 -10 -50 -10 -27 0 -50 5 -50 10 0 6 -13 10
-30 10 -16 0 -30 5 -30 10 0 6 -18 10 -40 10 -22 0 -40 5 -40 10 0 6 -63 10
-170 10 -107 0 -170 -4 -170 -10 0 -5 -18 -10 -40 -10 -22 0 -40 -4 -40 -10 0
-5 -18 -10 -40 -10 -22 0 -40 -4 -40 -10 0 -5 -18 -10 -40 -10 -22 0 -40 5
-40 10 0 6 -13 10 -30 10 -23 0 -30 4 -30 20 0 11 -4 20 -10 20 -6 0 -10 36
-10 89 0 62 -4 91 -12 93 -9 3 -8 9 4 21 15 15 49 17 312 17 191 0 296 4 296
10 0 6 30 10 70 10 40 0 70 4 70 10 0 6 27 10 60 10 33 0 60 4 60 10 0 6 18
10 40 10 22 0 40 5 40 10 0 6 18 10 40 10 22 0 40 5 40 10 0 6 14 10 30 10 17
0 30 5 30 10 0 6 14 10 30 10 17 0 30 5 30 10 0 6 14 10 30 10 17 0 30 5 30
10 0 6 14 10 30 10 17 0 30 5 30 10 0 6 9 10 20 10 11 0 20 5 20 10 0 6 9 10
20 10 11 0 20 5 20 10 0 6 14 10 30 10 17 0 30 5 30 10 0 6 9 10 20 10 11 0
20 5 20 10 0 6 9 10 20 10 11 0 20 5 20 10 0 6 9 10 20 10 11 0 20 5 20 10 0
6 9 10 20 10 11 0 20 5 20 10 0 6 8 10 18 10 10 0 24 9 32 20 8 11 22 20 32
20 10 0 18 5 18 10 0 6 8 10 18 10 10 0 24 9 32 20 8 11 21 20 30 20 9 0 22 9
30 20 8 11 21 20 28 20 8 0 27 14 42 30 15 17 33 30 40 30 6 0 29 18 50 40 21
22 44 40 50 40 6 0 38 27 70 60 32 33 66 60 74 60 9 0 16 7 16 16 0 8 27 42
60 74 33 32 60 64 60 70 0 6 18 29 40 50 22 21 40 44 40 50 0 7 14 25 30 40
17 15 30 34 30 42 0 7 9 20 20 28 11 8 20 21 20 30 0 9 9 22 20 30 11 8 20 22
20 32 0 10 5 18 10 18 6 0 10 8 10 18 0 10 9 24 20 32 11 8 20 22 20 32 0 10
5 18 10 18 6 0 10 9 10 20 0 11 5 20 10 20 6 0 10 9 10 20 0 11 5 20 10 20 6
0 10 9 10 20 0 11 5 20 10 20 6 0 10 9 10 20 0 11 5 20 10 20 6 0 10 9 10 20
0 11 5 20 10 20 6 0 10 14 10 30 0 17 5 30 10 30 6 0 10 9 10 20 0 11 5 20 10
20 6 0 10 14 10 30 0 17 5 30 10 30 6 0 10 9 10 20 0 11 5 20 10 20 6 0 10 7
10 15 0 18 84 105 101 105 6 0 28 18 49 40 21 22 44 40 50 40 15 0 40 25 40
40 0 7 13 25 30 40 16 15 30 35 30 44 0 9 5 16 10 16 6 0 10 9 10 20 0 11 5
20 10 20 6 0 10 9 10 20 0 11 5 20 10 20 6 0 10 18 10 40 0 22 5 40 10 40 6 0
10 30 10 70 0 40 -4 70 -10 70 -5 0 -10 18 -10 40 0 22 -4 40 -10 40 -5 0 -10
9 -10 20 0 11 -4 20 -10 20 -5 0 -10 8 -10 18 0 10 -9 24 -20 32 -11 8 -20 20
-20 28 0 18 -25 42 -44 42 -9 0 -16 5 -16 10 0 6 -7 10 -15 10 -9 0 -27 11
-40 25 -14 13 -25 31 -25 40 0 8 -4 15 -10 15 -6 0 -10 40 -10 100 0 60 -4
100 -10 100 -6 0 -10 27 -10 60 0 33 -4 60 -10 60 -5 0 -10 23 -10 50 0 28 -4
50 -10 50 -5 0 -10 18 -10 40 0 22 -4 40 -10 40 -5 0 -10 18 -10 40 0 22 -4
40 -10 40 -5 0 -10 14 -10 30 0 17 -4 30 -10 30 -5 0 -10 14 -10 30 0 17 -4
30 -10 30 -5 0 -10 14 -10 30 0 17 -4 30 -10 30 -5 0 -10 14 -10 30 0 17 -4
30 -10 30 -5 0 -10 14 -10 30 0 17 -4 30 -10 30 -5 0 -10 9 -10 20 0 11 -4 20
-10 20 -5 0 -10 9 -10 20 0 11 -4 20 -10 20 -5 0 -10 9 -10 20 0 11 -4 20 -10
20 -5 0 -10 9 -10 20 0 11 -4 20 -10 20 -5 0 -10 9 -10 20 0 11 -4 20 -10 20
-5 0 -10 9 -10 20 0 11 -4 20 -10 20 -5 0 -10 9 -10 20 0 11 -4 20 -10 20 -5
0 -10 9 -10 20 0 11 -4 20 -10 20 -5 0 -10 8 -10 18 0 10 -9 24 -20 32 -11 8
-20 21 -20 30 0 9 -9 22 -20 30 -11 8 -20 21 -20 28 0 8 -13 27 -30 42 -16 15
-30 33 -30 40 0 7 -14 25 -30 40 -17 15 -30 33 -30 40 0 6 -22 33 -50 60 -27
27 -50 54 -50 60 0 14 -126 140 -140 140 -6 0 -38 27 -70 60 -32 33 -64 60
-70 60 -7 0 -25 14 -40 30 -15 17 -34 30 -42 30 -7 0 -20 9 -28 20 -8 11 -21
20 -30 20 -9 0 -22 9 -30 20 -8 11 -21 20 -30 20 -9 0 -22 9 -30 20 -8 11 -22
20 -32 20 -10 0 -18 5 -18 10 0 6 -8 10 -18 10 -10 0 -24 9 -32 20 -8 11 -22
20 -32 20 -10 0 -18 5 -18 10 0 6 -9 10 -20 10 -11 0 -20 5 -20 10 0 6 -9 10
-20 10 -11 0 -20 5 -20 10 0 6 -9 10 -20 10 -11 0 -20 5 -20 10 0 6 -13 10
-30 10 -16 0 -30 5 -30 10 0 6 -9 10 -20 10 -11 0 -20 5 -20 10 0 6 -9 10 -20
10 -11 0 -20 5 -20 10 0 6 -13 10 -30 10 -16 0 -30 5 -30 10 0 6 -13 10 -30
10 -16 0 -30 5 -30 10 0 6 -13 10 -30 10 -16 0 -30 5 -30 10 0 6 -13 10 -30
10 -16 0 -30 5 -30 10 0 6 -13 10 -30 10 -16 0 -30 5 -30 10 0 6 -18 10 -40
10 -22 0 -40 5 -40 10 0 6 -22 10 -50 10 -27 0 -50 5 -50 10 0 6 -27 10 -60
10 -33 0 -60 4 -60 10 0 6 -130 10 -370 10 -240 0 -370 -4 -370 -10z m518
-161 c498 -55 976 -280 1336 -629 200 -194 337 -382 461 -635 164 -332 235
-638 236 -1011 l1 -190 51 18 c66 22 92 22 144 -1 64 -30 87 -88 62 -159 -12
-35 -116 -130 -255 -233 -83 -62 -92 -72 -104 -116 -43 -154 -162 -407 -267
-567 -170 -260 -409 -499 -668 -669 -130 -85 -369 -199 -526 -251 -472 -157
-989 -155 -1464 6 -646 219 -1167 729 -1404 1377 -102 277 -136 478 -136 793
l1 227 -41 -38 c-51 -47 -102 -65 -165 -59 -102 10 -166 73 -156 153 5 41 44
85 162 182 57 47 272 193 284 193 4 0 24 47 43 104 160 461 487 875 907 1149
259 168 562 287 860 336 69 11 143 22 165 24 93 8 383 6 473 -4z m-1776 -5641
c-2 -663 -6 -874 -15 -880 -7 -4 -61 -8 -122 -8 l-110 0 0 853 c0 468 4 858 9
865 17 27 71 41 156 42 l85 0 -3 -872z m3200 0 c-2 -663 -6 -874 -15 -880 -7
-4 -61 -8 -122 -8 l-110 0 0 853 c0 468 4 858 9 865 17 27 71 41 156 42 l85 0
-3 -872z m-2332 774 c41 -13 77 -33 94 -51 29 -30 29 -30 16 -93 -12 -64 -32
-112 -50 -123 -5 -3 -43 10 -83 30 -60 29 -87 37 -157 42 -110 7 -164 -7 -190
-50 -51 -83 -5 -241 145 -502 70 -121 202 -325 211 -325 4 0 4 80 1 178 -5
188 -17 249 -64 355 -14 31 -23 60 -20 63 18 19 376 33 434 18 27 -7 37 -46
27 -110 -10 -71 -38 -94 -113 -94 l-60 0 15 -42 c21 -60 36 -227 29 -328 -3
-47 -15 -134 -27 -195 l-21 -110 69 -62 c38 -34 81 -68 97 -74 16 -7 27 -19
27 -31 0 -53 -74 -155 -130 -178 -25 -10 -34 -9 -62 8 -18 12 -55 43 -82 71
l-49 50 -42 -34 c-99 -82 -235 -115 -389 -96 -154 19 -264 87 -318 196 -44 88
-56 274 -25 376 29 98 126 228 215 290 l22 16 -59 124 c-101 209 -131 330
-110 442 25 139 96 214 244 253 78 21 322 12 405 -14z m-2192 -457 c97 -29
144 -95 122 -172 -5 -21 -17 -47 -25 -57 -15 -19 -16 -19 -79 3 -76 27 -194
33 -243 13 -37 -16 -57 -57 -47 -98 5 -19 61 -82 170 -189 202 -198 218 -226
219 -380 0 -89 -3 -106 -28 -157 -70 -143 -241 -215 -451 -189 -145 18 -206
56 -206 131 0 44 27 140 40 140 5 0 33 -9 61 -21 59 -23 159 -35 212 -25 55
10 87 49 87 107 0 26 -5 60 -10 75 -6 15 -84 102 -173 193 -182 186 -207 225
-215 330 -10 153 64 253 218 295 76 20 280 21 348 1z m797 -12 c50 -26 79 -57
102 -108 16 -36 18 -80 21 -425 2 -212 1 -435 -3 -497 l-7 -111 -49 -21 c-112
-49 -260 -68 -379 -51 -184 26 -248 113 -255 345 -6 179 23 283 100 354 24 22
60 44 81 50 53 15 181 13 227 -3 l37 -14 0 110 c0 104 -1 110 -26 135 -26 26
-27 26 -132 20 -94 -6 -149 -15 -230 -41 -19 -6 -25 -2 -38 29 -8 21 -16 64
-16 96 -1 78 19 99 115 127 103 30 107 30 267 28 127 -1 150 -4 185 -23z
m2413 12 c97 -29 144 -95 122 -172 -5 -21 -17 -47 -25 -57 -15 -19 -16 -19
-79 3 -76 27 -194 33 -243 13 -37 -16 -57 -57 -47 -98 5 -19 61 -82 170 -189
202 -198 218 -226 219 -380 0 -89 -3 -106 -28 -157 -71 -144 -241 -215 -453
-189 -157 19 -213 64 -200 160 7 49 27 111 36 111 3 0 30 -10 60 -21 80 -31
204 -36 250 -11 47 26 64 75 48 140 -10 41 -31 67 -175 213 -196 200 -218 237
-218 364 0 70 4 87 30 134 35 64 103 113 185 135 76 20 281 21 348 1z m787
-12 c50 -26 79 -57 102 -108 16 -36 18 -80 21 -425 2 -212 1 -435 -3 -497 l-7
-111 -49 -21 c-112 -49 -260 -68 -379 -51 -182 26 -244 109 -257 340 -9 189
37 326 132 385 45 28 55 30 149 30 56 0 116 -4 134 -8 l32 -9 0 107 c0 101 -1
107 -26 132 -26 26 -28 26 -132 20 -59 -3 -140 -15 -179 -27 -40 -11 -74 -20
-76 -20 -10 0 -29 89 -29 137 -1 61 15 86 70 109 76 31 166 43 312 41 126 -2
150 -5 185 -24z m1269 -3 c66 -33 91 -69 89 -125 -1 -45 -29 -105 -48 -105 -5
0 -35 9 -64 21 -66 25 -191 30 -238 11 -37 -16 -57 -57 -47 -98 5 -19 60 -81
164 -184 87 -85 169 -175 183 -200 55 -97 60 -248 12 -347 -68 -139 -242 -210
-451 -184 -140 17 -204 59 -204 134 0 30 28 125 39 131 4 3 32 -4 61 -15 60
-23 161 -35 213 -25 55 10 87 49 87 107 0 26 -5 60 -11 75 -5 16 -82 101 -169
189 -192 194 -215 233 -215 360 0 70 4 87 30 134 20 37 46 64 80 87 78 52 138
64 300 61 127 -2 145 -4 189 -27z m761 3 c50 -26 79 -57 102 -108 16 -36 18
-80 21 -425 2 -212 1 -435 -3 -497 l-7 -111 -49 -21 c-112 -49 -260 -68 -379
-51 -184 26 -248 113 -255 345 -5 133 6 201 45 280 34 67 81 109 144 126 41
11 191 7 234 -6 22 -7 22 -7 22 99 0 102 -1 108 -26 133 -26 26 -27 26 -132
20 -94 -6 -149 -15 -230 -41 -19 -6 -25 -2 -38 29 -22 55 -22 150 2 176 47 52
175 79 364 76 126 -2 150 -5 185 -24z m-2525 -1483 c0 -5 9 -10 20 -10 11 0
20 -4 20 -10 0 -5 7 -10 16 -10 15 0 44 -23 44 -34 0 -3 -67 -6 -150 -6 -82 0
-150 3 -150 6 0 11 29 34 44 34 9 0 16 5 16 10 0 6 9 10 20 10 11 0 20 5 20
10 0 6 23 10 50 10 28 0 50 -4 50 -10z m-1080 -60 c0 -6 30 -10 70 -10 63 0
70 -2 70 -20 0 -13 -7 -20 -20 -20 -11 0 -20 -4 -20 -10 0 -5 -13 -10 -30 -10
-16 0 -30 -4 -30 -10 0 -6 -30 -10 -70 -10 -40 0 -70 4 -70 10 0 6 -13 10 -30
10 -16 0 -30 5 -30 10 0 6 -9 10 -20 10 -23 0 -27 23 -7 45 14 17 187 22 187
5z m2400 0 c0 -5 18 -10 40 -10 22 0 40 -4 40 -10 0 -6 27 -10 60 -10 48 0 60
-3 60 -16 0 -38 -24 -44 -164 -44 -84 0 -136 4 -136 10 0 6 -9 10 -20 10 -11
0 -20 5 -20 10 0 6 -7 10 -16 10 -8 0 -22 7 -30 15 -13 12 -13 17 -2 29 15 18
188 23 188 6z m-6676 -174 c45 -19 66 -52 66 -102 0 -30 -7 -48 -25 -68 -14
-15 -25 -29 -25 -32 0 -3 14 -25 30 -50 l31 -44 -34 0 c-28 0 -38 7 -65 45
-27 39 -36 45 -67 45 -35 0 -35 0 -35 -45 0 -43 -1 -45 -30 -45 l-30 0 0 155
0 155 75 0 c42 0 90 -6 109 -14z m436 -16 l0 -30 -80 0 -80 0 0 -35 0 -35 70
0 c68 0 70 -1 70 -25 0 -23 -3 -24 -72 -27 l-73 -3 0 -35 0 -35 83 -3 c80 -3
82 -3 82 -27 l0 -25 -115 0 -115 0 0 155 0 155 115 0 115 0 0 -30z m319 19
c33 -12 37 -20 21 -48 -9 -17 -13 -17 -53 -4 -52 17 -97 5 -97 -26 0 -16 14
-25 70 -42 77 -23 100 -45 100 -95 0 -50 -47 -84 -116 -84 -30 0 -71 7 -90 15
-30 12 -34 18 -28 37 9 31 6 30 47 13 45 -19 87 -19 112 -1 31 22 11 43 -63
65 -38 12 -74 27 -80 34 -33 41 -19 107 27 132 31 17 106 19 150 4z m391 -19
c0 -29 -2 -30 -45 -30 l-44 0 -3 -122 -3 -123 -32 -3 -33 -3 0 125 0 126 -50
0 c-49 0 -50 1 -50 30 l0 30 130 0 130 0 0 -30z m326 -119 c35 -79 64 -148 64
-152 0 -5 -13 -9 -28 -9 -22 0 -32 7 -45 35 l-17 35 -70 0 -71 0 -15 -35 c-12
-29 -19 -35 -44 -35 -17 0 -30 4 -30 8 0 5 25 64 56 133 31 68 60 134 65 147
7 19 15 23 40 20 30 -3 34 -9 95 -147z m244 41 c0 -120 7 -138 57 -148 26 -5
37 -1 57 19 25 25 26 32 26 132 l0 105 30 0 30 0 0 -110 c0 -159 -28 -200
-138 -200 -97 0 -132 55 -132 210 l0 100 35 0 35 0 0 -108z m544 94 c45 -19
66 -52 66 -102 0 -30 -7 -48 -25 -68 -14 -15 -25 -29 -25 -32 0 -3 14 -25 30
-50 l31 -44 -34 0 c-28 0 -38 7 -65 45 -27 39 -36 45 -67 45 -35 0 -35 0 -35
-45 0 -43 -1 -45 -30 -45 l-30 0 0 155 0 155 75 0 c42 0 90 -6 109 -14z m427
-133 c35 -81 66 -150 67 -155 2 -4 -10 -8 -27 -8 -26 0 -34 6 -48 35 l-17 35
-72 0 -73 0 -12 -35 c-11 -31 -17 -35 -47 -35 -18 0 -32 4 -30 8 2 5 32 75 68
155 63 143 66 147 96 147 29 0 32 -4 95 -147z m311 52 c40 -52 76 -94 79 -95
3 0 5 42 5 93 l-1 92 33 3 32 3 0 -155 0 -156 -27 1 c-23 0 -43 18 -105 96
l-78 95 0 -96 0 -96 -30 0 -30 0 0 155 0 155 24 0 c20 0 41 -21 98 -95z m528
65 c0 -29 -1 -30 -50 -30 l-50 0 0 -125 0 -125 -30 0 -30 0 0 125 0 125 -50 0
c-49 0 -50 1 -50 30 l0 30 130 0 130 0 0 -30z m340 0 l0 -30 -80 0 -80 0 0
-35 0 -35 70 0 c68 0 70 -1 70 -25 0 -24 -2 -25 -71 -25 l-70 0 3 -37 3 -38
83 -3 c80 -3 82 -3 82 -27 l0 -25 -115 0 -115 0 0 155 0 155 110 0 110 0 0
-30z m731 20 c48 -14 70 -40 76 -93 5 -39 1 -48 -25 -78 l-30 -33 29 -43 c16
-23 29 -44 29 -47 0 -3 -13 -6 -30 -6 -23 0 -35 9 -60 45 -27 39 -36 45 -65
45 -35 0 -35 0 -35 -45 0 -45 0 -45 -35 -45 l-35 0 0 155 0 155 73 0 c39 0 88
-5 108 -10z m279 -95 c0 -100 1 -107 26 -132 20 -20 31 -24 57 -19 50 10 57
28 57 148 l0 108 35 0 35 0 0 -92 c0 -115 -12 -159 -51 -192 -24 -20 -42 -26
-79 -26 -114 0 -140 37 -140 198 l0 112 30 0 30 0 0 -105z m469 10 c29 -52 56
-95 60 -95 3 0 30 43 59 95 44 80 57 95 78 95 l24 0 0 -155 0 -155 -25 0 c-25
0 -25 1 -25 79 0 44 -4 82 -9 85 -5 3 -26 -23 -47 -59 -23 -40 -45 -65 -55
-65 -11 0 -35 29 -63 73 l-46 72 0 -92 0 -93 -30 0 -30 0 0 155 0 155 28 0
c24 0 33 -12 81 -95z m591 77 c45 -22 61 -63 39 -101 -15 -25 -15 -29 2 -50
26 -31 24 -85 -2 -109 -26 -25 -62 -32 -165 -32 l-84 0 0 155 0 155 88 0 c63
0 97 -5 122 -18z m415 -119 c33 -75 63 -145 67 -155 6 -15 2 -18 -25 -18 -29
0 -35 5 -46 35 l-12 35 -73 0 -72 0 -17 -35 c-14 -29 -22 -35 -48 -35 -21 0
-29 4 -26 13 3 6 33 76 67 155 61 139 64 142 94 142 30 0 32 -3 91 -137z m820
107 c0 -24 -2 -25 -82 -28 l-83 -3 0 -34 0 -35 75 0 c73 0 75 -1 75 -25 0 -24
-2 -25 -75 -25 l-75 0 0 -34 c0 -40 13 -46 108 -46 59 0 62 -1 62 -25 l0 -25
-115 0 -115 0 0 155 0 156 113 -3 112 -3 0 -25z m214 -82 c24 -59 47 -105 51
-103 3 2 25 51 50 109 43 105 44 106 78 106 18 0 32 -4 30 -8 -1 -5 -32 -75
-68 -155 -63 -142 -66 -147 -95 -147 -29 0 -32 5 -92 143 -35 78 -63 148 -63
155 0 9 11 12 32 10 30 -3 34 -8 77 -110z m541 82 l0 -30 -80 0 -80 0 0 -35 0
-35 70 0 c68 0 70 -1 70 -25 0 -24 -2 -25 -71 -25 l-70 0 3 -37 3 -38 83 -3
c80 -3 82 -3 82 -28 l0 -25 -117 3 -118 3 -3 140 c-1 76 0 145 2 152 4 10 34
13 116 13 l110 0 0 -30z m271 -65 c41 -52 77 -94 81 -95 4 0 6 42 5 93 l-2 92
33 3 32 3 0 -155 0 -156 -27 1 c-23 0 -42 17 -103 94 l-75 94 -3 -95 -3 -95
-32 3 -32 3 -3 140 c-1 76 0 145 2 152 3 7 16 13 29 13 18 0 41 -23 98 -95z
m529 65 c0 -29 -1 -30 -50 -30 l-50 0 0 -125 0 -125 -30 0 -30 0 0 125 0 125
-50 0 c-49 0 -50 1 -50 30 l0 30 130 0 130 0 0 -30z m342 8 c74 -42 99 -136
55 -212 -32 -56 -78 -78 -152 -74 -73 4 -106 25 -136 86 -70 141 92 279 233
200z m409 5 c14 -14 3 -67 -12 -57 -25 15 -83 22 -110 12 -52 -18 -34 -48 41
-68 87 -23 119 -62 99 -120 -14 -39 -55 -60 -119 -60 -51 0 -120 22 -120 38 0
4 6 16 13 26 11 16 15 16 49 1 61 -25 118 -18 118 15 0 24 -17 35 -75 49 -66
16 -95 44 -95 92 0 30 7 43 32 64 29 25 38 27 100 23 37 -2 73 -9 79 -15z
m-5287 -85 c24 -34 20 -75 -10 -105 -21 -21 -32 -24 -62 -19 -45 7 -62 28 -62
77 0 50 21 69 75 69 34 0 47 -5 59 -22z m2494 10 c18 -18 15 -103 -4 -119 -21
-17 -87 -17 -108 0 -19 16 -22 101 -4 119 7 7 33 12 58 12 25 0 51 -5 58 -12z"/>
<path d="M4900 7149 c-456 -52 -883 -296 -1161 -664 -23 -31 -40 -58 -37 -60
2 -2 74 1 159 7 l154 11 70 65 c129 119 322 233 495 292 132 45 230 61 396 67
191 7 308 -9 474 -63 99 -32 171 -64 110 -50 -148 37 -197 47 -270 56 -289 35
-595 -31 -855 -185 -102 -61 -258 -181 -251 -194 3 -4 31 -11 63 -15 32 -3
104 -16 161 -27 l103 -22 33 39 c85 99 227 130 401 89 92 -22 283 -144 452
-289 183 -157 422 -421 400 -442 -4 -4 -45 29 -93 72 -288 264 -500 421 -676
498 l-58 26 -17 -27 c-10 -15 -13 -28 -8 -30 6 -2 48 -26 94 -53 108 -64 240
-164 361 -272 131 -117 272 -279 257 -294 -7 -7 -10 -4 -183 141 -143 120
-258 204 -377 273 -82 48 -195 102 -215 102 -8 0 -36 -51 -30 -54 182 -76 528
-345 643 -499 37 -50 25 -58 -27 -16 -226 182 -446 325 -591 385 l-82 33 -17
-22 c-10 -12 -18 -25 -18 -28 0 -4 34 -23 76 -43 146 -69 378 -239 492 -359
75 -80 70 -104 -9 -43 -174 133 -422 273 -566 320 -44 15 -102 41 -127 57 -84
56 -146 168 -146 263 l0 44 -62 12 c-35 6 -135 14 -224 17 l-161 6 -45 -69
c-102 -154 -184 -368 -214 -554 -20 -126 -14 -374 11 -487 94 -425 374 -786
748 -964 38 -19 50 -28 32 -24 -50 10 -250 111 -333 167 -106 73 -285 254
-354 358 -163 248 -240 495 -241 780 0 252 59 477 182 690 23 40 41 74 41 77
0 7 -55 -3 -183 -34 -128 -31 -122 -26 -178 -183 -213 -605 -61 -1283 389
-1737 252 -254 559 -413 932 -479 117 -22 401 -24 510 -5 361 62 645 199 909
438 71 65 226 241 218 249 -2 2 -48 -3 -103 -10 -285 -42 -512 -29 -869 51
-16 3 -28 -7 -53 -45 -76 -118 -220 -179 -401 -170 -167 9 -320 81 -468 221
-289 274 -386 670 -187 758 138 61 380 37 714 -72 162 -53 193 -70 262 -140
87 -89 130 -192 144 -351 5 -59 11 -79 23 -82 112 -35 520 -42 681 -13 123 22
236 51 332 84 l78 26 29 71 c41 99 77 218 103 338 30 139 32 464 5 603 -109
547 -426 974 -904 1214 -288 145 -627 206 -943 170z m1000 -579 c0 -5 9 -10
20 -10 11 0 20 -4 20 -10 0 -5 8 -10 18 -10 10 0 24 -9 32 -20 8 -11 20 -20
27 -20 16 0 283 -265 283 -281 0 -6 14 -24 30 -39 17 -15 30 -34 30 -42 0 -7
9 -20 20 -28 11 -8 20 -22 20 -32 0 -10 5 -18 10 -18 6 0 10 -9 10 -20 0 -11
5 -20 10 -20 6 0 10 -9 10 -20 0 -11 5 -20 10 -20 6 0 10 -9 10 -20 0 -11 5
-20 10 -20 6 0 10 -9 10 -20 0 -11 5 -20 10 -20 6 0 10 -13 10 -30 0 -16 5
-30 10 -30 6 0 10 -13 10 -30 0 -16 5 -30 10 -30 6 0 10 -13 10 -30 0 -16 5
-30 10 -30 6 0 10 -18 10 -40 0 -22 5 -40 10 -40 6 0 10 -37 10 -90 0 -53 4
-90 10 -90 6 0 10 -33 10 -80 0 -47 -4 -80 -10 -80 -6 0 -10 -37 -10 -90 0
-53 -4 -90 -10 -90 -5 0 -10 -18 -10 -40 0 -22 -4 -40 -10 -40 -5 0 -10 -18
-10 -40 0 -22 -4 -40 -10 -40 -5 0 -10 -7 -10 -15 0 -20 -65 -85 -85 -85 -8 0
-15 -4 -15 -10 0 -5 -22 -10 -50 -10 -27 0 -50 -4 -50 -10 0 -6 -27 -10 -60
-10 -33 0 -60 -4 -60 -10 0 -6 -62 -10 -166 -10 -179 0 -194 4 -194 54 0 14
-4 26 -10 26 -5 0 -10 9 -10 20 0 11 -4 20 -10 20 -5 0 -10 14 -10 30 0 17 -4
30 -10 30 -5 0 -10 9 -10 20 0 11 -4 20 -10 20 -5 0 -10 8 -10 18 0 10 -9 24
-20 32 -11 8 -20 21 -20 28 0 7 -18 31 -40 52 -22 21 -40 48 -40 60 0 24 42
70 65 70 8 0 15 5 15 10 0 6 9 10 20 10 11 0 20 5 20 10 0 6 8 10 18 10 10 0
24 9 32 20 8 11 22 20 32 20 10 0 18 5 18 10 0 6 9 10 20 10 11 0 20 5 20 10
0 6 8 10 18 10 10 0 24 9 32 20 8 11 20 20 27 20 19 0 123 106 123 125 0 8 5
15 10 15 6 0 10 47 10 120 0 73 -4 120 -10 120 -5 0 -10 9 -10 20 0 11 -4 20
-10 20 -5 0 -10 9 -10 20 0 11 -4 20 -10 20 -5 0 -10 8 -10 18 0 10 -9 24 -20
32 -11 8 -20 20 -20 28 0 7 -22 35 -50 62 -27 27 -50 54 -50 60 0 14 -126 140
-140 140 -6 0 -38 27 -70 60 -32 33 -66 60 -74 60 -11 0 -16 10 -16 30 0 28 2
30 40 30 22 0 40 5 40 10 0 6 12 10 28 11 20 0 43 17 92 69 64 68 80 80 80 60z
m-1545 -715 c14 -13 25 -31 25 -40 0 -8 5 -15 10 -15 6 0 10 -8 10 -18 0 -10
9 -24 20 -32 11 -8 20 -20 20 -27 0 -17 86 -103 103 -103 7 0 19 -9 27 -20 8
-11 22 -20 32 -20 10 0 18 -4 18 -10 0 -5 12 -10 26 -10 29 0 54 -21 54 -44 0
-14 -16 -16 -100 -16 -60 0 -100 -4 -100 -10 0 -5 -13 -10 -30 -10 -16 0 -30
-4 -30 -10 0 -5 -13 -10 -30 -10 -16 0 -30 -4 -30 -10 0 -5 -9 -10 -20 -10
-11 0 -20 -4 -20 -10 0 -5 -8 -10 -18 -10 -10 0 -24 -9 -32 -20 -8 -11 -20
-20 -28 -20 -16 0 -62 -45 -62 -60 0 -11 -45 -60 -55 -60 -3 0 -5 54 -5 120 0
73 4 120 10 120 6 0 10 23 10 50 0 28 5 50 10 50 6 0 10 18 10 40 0 22 5 40
10 40 6 0 10 9 10 20 0 11 5 20 10 20 6 0 10 14 10 30 0 17 5 30 10 30 6 0 10
7 10 15 0 19 60 83 78 84 7 1 24 -10 37 -24z"/>
<path d="M4024 1858 c-46 -55 -66 -114 -71 -208 -4 -75 -2 -90 19 -129 34 -66
66 -85 148 -89 60 -4 78 -1 123 22 98 48 98 47 8 169 -43 58 -102 142 -131
187 -29 44 -56 80 -60 80 -5 0 -21 -15 -36 -32z"/>
<path d="M2793 1770 c-12 -5 -29 -20 -38 -33 -24 -37 -38 -139 -30 -214 6 -55
12 -72 36 -96 27 -26 35 -29 74 -24 75 8 75 8 75 193 0 89 -4 165 -8 168 -18
11 -88 15 -109 6z"/>
<path d="M5993 1770 c-12 -5 -29 -20 -38 -33 -24 -37 -38 -139 -30 -214 6 -55
12 -72 36 -96 27 -26 35 -29 74 -24 75 8 75 8 75 193 0 89 -4 165 -8 168 -18
11 -88 15 -109 6z"/>
<path d="M8023 1770 c-12 -5 -29 -20 -38 -33 -24 -37 -38 -139 -30 -214 6 -55
12 -72 36 -96 27 -26 35 -29 74 -24 75 8 75 8 75 193 0 89 -4 165 -8 168 -18
11 -88 15 -109 6z"/>
<path d="M9296 624 c-19 -20 -26 -37 -26 -66 0 -50 13 -74 52 -94 80 -41 167
35 138 121 -15 45 -44 65 -96 65 -31 0 -48 -6 -68 -26z"/>
</g>
</svg>
